<?xml version="1.0" standalone="no"?>
<!DOCTYPE svg PUBLIC "-//W3C//DTD SVG 20010904//EN"
 "http://www.w3.org/TR/2001/REC-SVG-20010904/DTD/svg10.dtd">
<svg version="1.0" xmlns="http://www.w3.org/2000/svg"
 width="1408.000000pt" height="1408.000000pt" viewBox="0 0 1408.000000 1408.000000"
 preserveAspectRatio="xMidYMid meet">
<metadata>
Created by potrace 1.11, written by Peter Selinger 2001-2013
</metadata>
<g transform="translate(0.000000,1408.000000) scale(0.100000,-0.100000)"
fill="#000000" stroke="none">
<path d="M2122 13943 c-232 -231 -397 -462 -537 -748 -179 -365 -269 -726
-282 -1135 -19 -613 157 -1199 513 -1712 l54 -77 -44 -73 c-23 -40 -79 -127
-123 -193 -267 -400 -522 -932 -693 -1445 -454 -1359 -449 -2818 13 -4175 379
-1110 1069 -2111 1982 -2875 1058 -885 2387 -1422 3710 -1501 250 -15 804 -6
1045 16 1199 109 2326 543 3296 1268 252 187 444 356 705 616 425 425 736 826
1029 1326 96 164 284 538 357 712 250 589 413 1213 485 1863 9 80 13 283 13
670 -1 585 -5 659 -56 1015 -83 583 -278 1213 -561 1816 l-50 107 40 228 c93
522 107 666 106 1039 -2 665 -108 1449 -276 2035 -121 422 -242 684 -402 865
l-44 50 -110 -225 c-259 -526 -547 -961 -917 -1385 -142 -163 -306 -326 -319
-317 -6 4 -106 71 -221 148 -453 304 -816 497 -1275 679 -536 212 -1153 365
-1693 422 -208 22 -1134 25 -1347 5 -852 -81 -1855 -400 -2570 -819 -47 -27
-113 -65 -147 -83 l-61 -34 -85 72 c-131 110 -358 334 -477 469 -289 329 -484
630 -707 1093 -167 346 -197 404 -211 408 -7 2 -70 -54 -140 -125z m8270
-3522 c461 -181 974 -1064 1183 -2036 80 -376 110 -694 102 -1090 -6 -278 -17
-392 -63 -650 -46 -264 -223 -906 -449 -1633 -99 -319 -499 -1522 -505 -1522
-4 0 -33 58 -64 129 -169 380 -466 865 -1051 1716 -429 624 -551 826 -563 931
-4 37 -19 59 -110 166 -192 224 -363 408 -702 752 -446 454 -716 755 -1046
1166 -661 825 -1063 1498 -1081 1810 -5 77 -3 88 19 120 30 45 81 70 141 70
27 0 117 -15 200 -34 640 -144 1223 -201 1811 -176 486 20 842 68 1321 176
478 109 615 134 710 131 64 -2 107 -10 147 -26z m2498 -1983 c372 -771 234
-1682 -349 -2313 -98 -105 -317 -294 -342 -295 -3 0 45 201 107 448 167 667
307 1280 448 1967 67 322 65 315 72 315 3 0 32 -55 64 -122z m-6922 -288 c156
-93 381 -240 542 -353 182 -127 460 -337 460 -348 0 -5 -6 -9 -14 -9 -8 0 -54
-12 -102 -26 -219 -63 -407 -175 -574 -343 -196 -197 -314 -413 -372 -684 -31
-145 -31 -389 0 -534 59 -272 176 -489 371 -683 154 -154 324 -261 513 -324
105 -35 108 -35 108 17 0 68 28 166 72 257 82 166 251 299 438 346 121 31 291
18 405 -29 117 -49 243 -151 307 -250 l31 -48 39 38 c66 64 181 223 232 322
53 103 110 260 121 334 4 26 11 49 15 52 15 9 396 -496 580 -770 30 -44 100
-154 157 -244 l102 -163 -30 -45 c-195 -283 -500 -566 -801 -744 -934 -553
-2134 -450 -2953 253 -750 644 -1064 1631 -821 2584 144 567 474 1056 956
1418 41 31 77 56 80 56 3 0 65 -36 138 -80z"/>
</g>
</svg>
